<svg width="400" height="400" viewBox="0 0 400 400" fill="none" xmlns="http://www.w3.org/2000/svg">
<rect width="400" height="400" rx="200" fill="#0A66C2"/>
<path fill-rule="evenodd" clip-rule="evenodd" d="M178.575 174.742H209.525V190.158C213.983 181.292 225.417 173.325 242.592 173.325C275.517 173.325 283.333 190.975 283.333 223.358V283.333H250V230.733C250 212.292 245.542 201.892 234.192 201.892C218.45 201.892 211.908 213.1 211.908 230.725V283.333H178.575V174.742V174.742ZM121.417 281.917H154.75V173.325H121.417V281.917V281.917ZM159.525 137.917C159.526 140.711 158.972 143.477 157.895 146.055C156.818 148.633 155.239 150.971 153.25 152.933C149.22 156.939 143.765 159.18 138.083 159.167C132.412 159.163 126.969 156.927 122.933 152.942C120.952 150.973 119.378 148.632 118.303 146.054C117.228 143.475 116.671 140.71 116.667 137.917C116.667 132.275 118.917 126.875 122.942 122.892C126.974 118.901 132.419 116.664 138.092 116.667C143.775 116.667 149.225 118.908 153.25 122.892C157.267 126.875 159.525 132.275 159.525 137.917Z" fill="white"/>
</svg>
