<svg width="400" height="400" viewBox="0 0 400 400" fill="none" xmlns="http://www.w3.org/2000/svg">
<rect width="400" height="400" rx="200" fill="#2A2A2A"/>
<path d="M156.406 143.207C125.254 143.207 100 168.635 100 200C100 231.365 125.256 256.793 156.406 256.793C187.557 256.793 212.812 231.367 212.812 200C212.812 168.633 187.56 143.207 156.406 143.207ZM246.484 146.534C230.908 146.534 218.283 170.477 218.283 200.001C218.283 229.525 230.91 253.47 246.486 253.47C262.063 253.47 274.69 229.526 274.69 200.001H274.688C274.688 170.469 262.063 146.534 246.485 146.534H246.484ZM290.08 152.103C284.603 152.103 280.163 173.549 280.163 200.001C280.163 226.453 284.6 247.899 290.08 247.899C295.56 247.899 300 226.447 300 200C300 173.547 295.558 152.103 290.081 152.103H290.08Z" fill="white"/>
</svg>
