<svg width="400" height="400" viewBox="0 0 400 400" fill="none" xmlns="http://www.w3.org/2000/svg">
<rect width="400" height="400" rx="200" fill="black"/>
<path d="M170.183 267.342C170.183 274.808 170.267 281.95 170.317 286.383C170.326 287.455 170.67 288.497 171.301 289.363C171.931 290.23 172.817 290.878 173.833 291.217C191.15 296.933 209.808 297.2 227.283 291.975L229.717 291.25C230.863 290.907 231.868 290.206 232.585 289.249C233.302 288.291 233.693 287.129 233.7 285.933C233.742 279.825 233.842 269.125 233.842 256.517C233.842 245.083 229.867 237.767 225.25 233.958C253.575 230.908 283.333 220.542 283.333 173.733C283.333 160.317 278.4 149.483 270.283 140.95C271.558 137.9 276.017 125.4 269.008 108.633C269.008 108.633 258.342 105.275 234 121.133C223.614 118.377 212.912 116.993 202.167 117.017C191.35 117.017 180.525 118.392 170.342 121.133C146 105.417 135.333 108.633 135.333 108.633C128.333 125.4 132.783 137.9 134.058 140.95C125.559 149.731 120.869 161.513 121.008 173.733C121.008 220.383 150.608 230.9 178.933 233.958C175.275 237.008 171.933 242.342 170.825 250.267C163.5 253.467 145.2 258.65 133.742 240.208C131.358 236.542 124.192 227.55 114.167 227.708C103.5 227.858 109.867 233.5 114.333 235.792C119.733 238.683 125.942 249.508 127.375 253.017C129.925 259.875 138.2 272.983 170.183 267.35V267.342Z" fill="white"/>
</svg>
