<svg width="400" height="400" viewBox="0 0 400 400" fill="none" xmlns="http://www.w3.org/2000/svg">
<rect width="400" height="400" rx="200" fill="white"/>
<path fill-rule="evenodd" clip-rule="evenodd" d="M200 0C89.5 0 0 89.5 0 200C0 288.5 57.25 363.25 136.75 389.75C146.75 391.5 150.5 385.5 150.5 380.25C150.5 375.5 150.25 359.75 150.25 343C100 352.25 87 330.75 83 319.5C80.75 313.75 71 296 62.5 291.25C55.5 287.5 45.5 278.25 62.25 278C78 277.75 89.25 292.5 93 298.5C111 328.75 139.75 320.25 151.25 315C153 302 158.25 293.25 164 288.25C119.5 283.25 73 266 73 189.5C73 167.75 80.75 149.75 93.5 135.75C91.5 130.75 84.5 110.25 95.5 82.75C95.5 82.75 112.25 77.5 150.5 103.25C166.5 98.75 183.5 96.5 200.5 96.5C217.5 96.5 234.5 98.75 250.5 103.25C288.75 77.25 305.5 82.75 305.5 82.75C316.5 110.25 309.5 130.75 307.5 135.75C320.25 149.75 328 167.5 328 189.5C328 266.25 281.25 283.25 236.75 288.25C244 294.5 250.25 306.5 250.25 325.25C250.25 352 250 373.5 250 380.25C250 385.5 253.75 391.75 263.75 389.75C303.453 376.345 337.953 350.828 362.394 316.789C386.836 282.751 399.988 241.905 400 200C400 89.5 310.5 0 200 0Z" fill="black"/>
</svg>
